<?xml version="1.0" standalone="no"?>
<!DOCTYPE svg PUBLIC "-//W3C//DTD SVG 20010904//EN"
 "http://www.w3.org/TR/2001/REC-SVG-20010904/DTD/svg10.dtd">
<svg version="1.0" xmlns="http://www.w3.org/2000/svg"
 width="272.000000pt" height="272.000000pt" viewBox="0 0 272.000000 272.000000"
 preserveAspectRatio="xMidYMid meet">
<metadata>
Created by potrace 1.11, written by Peter Selinger 2001-2013
</metadata>
<g transform="translate(0.000000,272.000000) scale(0.100000,-0.100000)"
fill="#000000" stroke="none">
<path d="M1220 2714 c-325 -41 -596 -172 -819 -395 -195 -195 -324 -436 -378
-707 -24 -120 -24 -384 0 -504 110 -550 535 -975 1085 -1085 120 -24 384 -24
504 0 550 110 975 535 1085 1085 24 120 24 384 0 504 -109 547 -538 978 -1079
1083 -81 16 -329 28 -398 19z m945 -918 c74 -23 73 -21 61 -108 -8 -65 -13
-78 -28 -78 -15 0 -18 8 -18 45 0 73 -64 117 -171 117 -59 0 -89 -10 -127 -46
-71 -64 -77 -190 -11 -238 17 -13 73 -28 162 -43 156 -27 197 -46 228 -107 28
-55 27 -144 -1 -203 -24 -50 -91 -115 -148 -144 -88 -45 -249 -47 -349 -6
l-36 15 7 53 c3 28 6 69 6 90 0 29 4 37 19 37 15 0 19 -9 23 -50 3 -27 11 -57
19 -66 46 -56 199 -76 276 -36 105 54 136 202 57 271 -19 17 -40 31 -47 31
-46 0 -216 33 -251 49 -54 23 -92 72 -106 135 -28 126 49 246 186 290 59 19
174 15 249 -8z m-1478 -78 c82 -179 272 -563 279 -563 7 0 219 439 279 578
l29 67 119 0 c107 0 118 -2 115 -17 -2 -14 -15 -19 -51 -21 -41 -3 -49 -7 -57
-28 -16 -40 -13 -663 3 -694 10 -21 21 -26 60 -28 38 -3 47 -7 47 -22 0 -18
-10 -19 -170 -19 -162 0 -170 1 -170 19 0 16 7 20 38 20 75 0 73 -13 70 339
l-3 314 -114 -239 c-63 -132 -136 -288 -162 -349 -27 -60 -54 -111 -61 -112
-8 -2 -28 31 -48 75 -19 42 -94 199 -167 347 l-132 270 2 -306 c2 -345 1 -339
73 -339 37 0 44 -3 44 -20 0 -19 -7 -20 -145 -20 -137 0 -145 1 -145 19 0 17
8 20 47 23 74 5 74 0 71 390 -2 185 -7 340 -11 344 -4 5 -29 11 -55 14 -34 4
-48 10 -50 23 -3 15 7 17 112 17 l116 0 37 -82z"/>
</g>
</svg>
